<?xml version="1.0" standalone="no"?>
<!DOCTYPE svg PUBLIC "-//W3C//DTD SVG 20010904//EN"
 "http://www.w3.org/TR/2001/REC-SVG-20010904/DTD/svg10.dtd">
<svg version="1.0" xmlns="http://www.w3.org/2000/svg"
 width="500.000000pt" height="500.000000pt" viewBox="0 0 500.000000 500.000000"
 preserveAspectRatio="xMidYMid meet">

<g transform="translate(0.000000,500.000000) scale(0.100000,-0.100000)"
fill="#000000" stroke="none">
<path d="M0 2500 l0 -2500 2500 0 2500 0 0 2500 0 2500 -2500 0 -2500 0 0
-2500z m1189 442 c72 -33 131 -126 131 -206 0 -47 -17 -98 -45 -136 -25 -34
-25 -35 -5 -42 12 -4 20 -16 20 -31 0 -22 2 -22 58 -17 37 4 71 15 99 33 24
15 45 27 48 27 3 0 5 -70 5 -155 l0 -156 -55 36 c-44 28 -65 35 -105 35 l-50
0 0 -90 0 -90 -195 0 -195 0 0 55 0 55 70 0 70 0 0 30 0 30 -70 0 -70 0 0 35
0 35 80 0 80 0 0 30 0 31 -117 -3 -118 -3 -3 -147 -3 -148 -64 0 c-61 0 -65
-1 -65 -22 0 -37 -11 -44 -92 -62 -42 -9 -81 -23 -87 -30 -6 -8 -30 -17 -54
-20 -23 -4 -52 -9 -64 -13 -21 -5 -23 -1 -23 29 0 34 1 35 58 45 31 6 64 7 73
3 8 -5 33 -5 55 0 21 4 56 11 77 14 31 6 37 11 37 31 0 21 -5 25 -30 25 l-30
0 0 120 c0 127 -3 135 -49 111 -15 -8 -22 -1 -45 46 l-27 55 31 -6 c16 -3 44
-9 60 -12 36 -8 41 12 7 25 -119 45 -162 205 -80 301 75 89 208 94 290 10 37
-38 58 -35 68 10 8 38 66 104 109 128 63 33 148 35 215 4z m1939 -268 c80 -33
112 -88 112 -194 0 -163 -154 -249 -301 -168 -92 51 -118 223 -47 313 46 59
158 82 236 49z m-1298 -29 l0 -34 -102 -3 -103 -3 0 -40 0 -40 93 -3 92 -3 0
-34 0 -34 -92 -3 -93 -3 -3 -77 -3 -78 -44 0 -45 0 0 195 0 195 150 0 150 0 0
-35z m140 -160 l0 -195 -45 0 -45 0 0 195 0 195 45 0 45 0 0 -195z m160 40 l0
-155 90 0 90 0 0 -40 0 -40 -135 0 -135 0 0 195 0 195 45 0 45 0 0 -155z m396
29 l51 -127 53 127 53 126 58 0 59 0 0 -195 0 -195 -45 0 -45 0 0 128 -1 127
-53 -125 c-46 -109 -56 -125 -78 -128 -23 -3 -29 6 -79 125 l-54 128 -3 -127
-3 -128 -39 0 -40 0 0 195 0 195 58 0 57 0 51 -126z m1094 86 l0 -40 -65 0
-65 0 0 -155 0 -155 -45 0 -45 0 0 155 0 155 -65 0 -65 0 0 40 0 40 175 0 175
0 0 -40z m350 5 l0 -35 -105 0 -105 0 0 -40 0 -40 95 0 95 0 0 -40 0 -40 -95
0 -95 0 0 -40 0 -39 108 -3 107 -3 3 -37 3 -38 -155 0 -156 0 0 195 0 195 150
0 150 0 0 -35z m142 -52 l3 -88 74 88 75 87 59 0 59 0 -67 -75 c-37 -41 -65
-78 -63 -83 18 -41 134 -220 140 -214 4 4 34 81 66 172 33 91 63 173 67 183 5
13 19 17 55 17 36 0 50 -4 55 -17 4 -10 33 -90 65 -178 32 -88 61 -168 65
-177 6 -16 1 -18 -39 -18 -45 0 -47 1 -62 40 l-16 40 -68 0 -68 0 -16 -40 -16
-40 -97 0 -98 0 -54 92 -54 92 -33 -40 c-29 -33 -34 -47 -34 -91 l0 -53 -40 0
-40 0 0 195 0 195 40 0 39 0 3 -87z m-1387 -463 c9 -27 18 -50 20 -50 2 0 11
23 20 50 9 28 21 50 26 50 5 0 8 -30 7 -67 -1 -62 -2 -63 -6 -18 l-4 50 -17
-43 c-9 -24 -21 -44 -26 -45 -4 -1 -15 18 -24 43 l-16 45 -6 -50 c-6 -49 -6
-49 -7 18 -1 37 2 67 7 67 5 0 17 -22 26 -50z m275 30 c37 -37 14 -110 -35
-110 -43 0 -62 75 -28 112 21 23 38 23 63 -2z m163 -50 l14 -35 21 55 c25 66
29 48 5 -27 -9 -29 -21 -52 -27 -50 -10 3 -44 92 -45 117 0 16 8 1 32 -60z
m199 20 c-3 -32 0 -55 8 -65 10 -12 9 -15 -6 -15 -17 0 -19 8 -19 65 0 41 4
65 11 65 7 0 9 -17 6 -50z m218 40 c0 -5 -16 -10 -35 -10 -28 0 -35 -4 -35
-20 0 -16 7 -20 38 -22 l37 -1 -37 -4 c-32 -4 -38 -8 -38 -28 0 -21 5 -24 43
-28 l42 -4 -47 -1 -48 -2 0 65 0 65 40 0 c22 0 40 -4 40 -10z m-1017 -343 c31
-4 31 -4 -5 -5 l-38 -2 2 68 2 67 3 -62 c4 -61 4 -62 36 -66z m162 58 c0 -37
-4 -65 -10 -65 -6 0 -10 28 -10 65 0 37 4 65 10 65 6 0 10 -28 10 -65z m205
51 c6 -8 10 -23 9 -33 -1 -10 1 -26 6 -36 11 -26 -12 -47 -51 -47 l-34 0 0 65
c0 65 0 65 29 65 16 0 34 -6 41 -14z m201 4 c21 -12 25 -40 8 -57 -8 -8 -8
-17 1 -33 6 -12 9 -24 7 -27 -3 -3 -13 9 -22 26 -20 40 -45 41 -45 1 0 -16 -4
-30 -10 -30 -11 0 -14 113 -3 123 10 10 42 8 64 -3z m214 -4 c17 -12 18 -17 7
-40 -8 -19 -9 -33 -2 -46 12 -22 13 -30 2 -30 -4 0 -13 14 -19 31 -15 39 -45
36 -54 -6 -5 -21 -7 -9 -8 38 l-1 67 28 0 c16 0 37 -6 47 -14z m200 -54 c9
-29 15 -56 12 -58 -3 -3 -8 4 -12 15 -9 28 -51 28 -60 1 -3 -11 -10 -20 -16
-20 -5 0 0 21 10 48 10 26 21 56 25 66 9 26 20 12 41 -52z m154 37 l18 -30 22
33 c11 18 21 26 21 18 -1 -8 -7 -24 -15 -34 -8 -11 -15 -32 -15 -47 0 -15 -4
-31 -10 -34 -6 -4 -10 6 -10 22 0 15 -9 43 -20 61 -21 34 -24 42 -15 42 3 0
14 -14 24 -31z"/>
<path d="M1030 2843 c-21 -11 -42 -33 -54 -57 -17 -36 -18 -43 -5 -79 19 -54
59 -82 115 -82 108 0 153 141 64 206 -38 28 -80 32 -120 12z m60 -38 c0 -8 -9
-15 -20 -15 -20 0 -26 11 -13 23 12 13 33 7 33 -8z m56 -26 c10 -17 -13 -36
-27 -22 -12 12 -4 33 11 33 5 0 12 -5 16 -11z m-108 -26 c-4 -22 -22 -20 -26
1 -2 10 3 16 13 16 10 0 15 -7 13 -17z m102 -47 c0 -21 -21 -31 -30 -15 -5 7
-6 17 -4 21 9 14 34 9 34 -6z m-74 -7 c10 -17 -13 -36 -27 -22 -12 12 -4 33
11 33 5 0 12 -5 16 -11z"/>
<path d="M595 2748 c-39 -35 -44 -86 -11 -125 33 -39 74 -50 115 -29 37 20 51
44 51 91 0 75 -96 114 -155 63z m65 -18 c0 -5 -4 -10 -9 -10 -6 0 -13 5 -16
10 -3 6 1 10 9 10 9 0 16 -4 16 -10z m50 -31 c0 -5 -7 -9 -15 -9 -15 0 -20 12
-9 23 8 8 24 -1 24 -14z m-82 -10 c-2 -6 -8 -10 -13 -10 -5 0 -11 4 -13 10 -2
6 4 11 13 11 9 0 15 -5 13 -11z m74 -44 c0 -5 -5 -11 -11 -13 -6 -2 -11 4 -11
13 0 9 5 15 11 13 6 -2 11 -8 11 -13z m-54 -7 c-6 -18 -28 -21 -28 -4 0 9 7
16 16 16 9 0 14 -5 12 -12z"/>
<path d="M854 2612 c-6 -4 -16 -17 -23 -29 -11 -22 -10 -23 39 -23 53 0 55 4
22 43 -17 19 -22 20 -38 9z"/>
<path d="M1202 2213 c2 -10 10 -18 18 -18 8 0 16 8 18 18 2 12 -3 17 -18 17
-15 0 -20 -5 -18 -17z"/>
<path d="M2993 2598 c-46 -22 -64 -139 -29 -192 50 -77 167 -46 183 47 14 90
-27 158 -94 156 -21 0 -48 -5 -60 -11z"/>
<path d="M4557 2507 c-9 -30 -17 -57 -17 -60 0 -4 18 -7 40 -7 22 0 40 3 40 7
0 16 -34 113 -40 113 -3 0 -14 -24 -23 -53z"/>
<path d="M2942 2148 c-24 -24 -4 -88 27 -88 36 0 41 93 6 98 -11 1 -26 -3 -33
-10z"/>
<path d="M2870 1910 c0 -21 24 -27 49 -11 19 12 4 31 -25 31 -17 0 -24 -5 -24
-20z"/>
<path d="M2870 1855 c0 -23 4 -26 28 -23 19 2 27 9 27 23 0 14 -8 21 -27 23
-24 3 -28 0 -28 -23z"/>
<path d="M3080 1910 c0 -17 5 -21 28 -18 16 2 27 9 27 18 0 9 -11 16 -27 18
-23 3 -28 -1 -28 -18z"/>
<path d="M3280 1910 c0 -16 7 -20 30 -20 23 0 30 4 30 20 0 16 -7 20 -30 20
-23 0 -30 -4 -30 -20z"/>
<path d="M3507 1906 c-11 -27 -8 -36 8 -36 16 0 17 5 6 34 -7 18 -8 18 -14 2z"/>
</g>
</svg>
